<?xml version="1.0" encoding="utf-8"?>
<!-- Generator: Adobe Illustrator 23.0.0, SVG Export Plug-In . SVG Version: 6.00 Build 0)  -->
<svg version="1.1" id="Layer_1" xmlns="http://www.w3.org/2000/svg" xmlns:xlink="http://www.w3.org/1999/xlink" x="0px" y="0px"
	 viewBox="0 0 300 300" style="enable-background:new 0 0 300 300;" xml:space="preserve">
<style type="text/css">
	.st0{fill-rule:evenodd;clip-rule:evenodd;fill:#FF6A00;}
	.st1{fill:#FF6A00;}
	.st2{fill:#FFFFFF;}
	.st3{fill:#FF9500;}
	.st4{fill:#311600;}
	.st5{fill-rule:evenodd;clip-rule:evenodd;fill:#D84200;}
</style>
<path class="st0" d="M207,227.8c-4.9,0.2-9.7,0.4-14.6,0.7c-6.2,0.4-8.3-0.8-10.6-6.5c-1.7-4.2-3.1-8.4-4.9-12.5
	c-0.5-1.1-2.2-2.4-3.3-2.5c-16.6-0.6-33.2-1-49.7-1.2c-1.2,0-3.1,1.5-3.6,2.7c-1.7,4-2.9,8.2-4.4,12.3c-1.7,4.8-5.2,7.1-10.2,7.1
	c-8.6,0-17.2,0-25.8,0.1c-7.5,0.1-11.1-4.5-8.6-11.6c1.7-4.8,3.9-9.4,6-14.1c15.8-35.4,31.6-70.8,47.2-106.2
	c1.8-4.1,4.7-5.8,8.6-5.9c10.6-0.2,21.2-0.2,31.8-0.1c4.1,0,6.9,2.1,8.5,6.1c2.9,7,6.1,13.9,9.1,20.9c7.9,18.6,15.6,37.2,23.7,55.7
	c5.1,11.6,10.9,23,16.3,34.5c1.7,3.6,3.1,7.3,4.4,11.1c1.7,5.1-0.6,9.1-6,9.7c-4.6,0.5-9.2,0.1-13.8,0.1
	C207,228,207,227.9,207,227.8"/>
<path class="st1" d="M194.8,93.8c0,13.2-10.7,23.9-23.8,23.9c-13.2,0-23.9-10.7-23.9-23.9c0-13.2,10.7-23.9,23.9-23.9
	C184.1,69.9,194.8,80.6,194.8,93.8"/>
<path class="st2" d="M193.9,93.8c0,11.7-9.5,21.2-21.1,21.2c-11.7,0-21.2-9.5-21.2-21.2c0-11.7,9.5-21.1,21.2-21.1
	C184.4,72.6,193.9,82.1,193.9,93.8"/>
<path class="st3" d="M190.4,82.2c-3.8-5.8-10.3-9.6-17.7-9.6c-11.7,0-21.2,9.5-21.2,21.1c0,0.5,0,0.9,0.1,1.4
	C156.4,88.4,168.8,75,190.4,82.2"/>
<path class="st4" d="M189.7,97.4c0,6-4.9,10.9-10.9,10.9c-6,0-11-4.9-11-10.9c0-6,4.9-10.9,11-10.9
	C184.8,86.4,189.7,91.4,189.7,97.4"/>
<path class="st2" d="M176.8,94.8c0,1.7-1.3,3-3,3c-1.7,0-3-1.3-3-3c0-1.7,1.3-3,3-3C175.5,91.9,176.8,93.2,176.8,94.8"/>
<path class="st1" d="M149.4,100.7c0,13.2-10.7,23.9-23.9,23.9c-13.2,0-23.9-10.7-23.9-23.9c0-13.2,10.7-23.9,23.9-23.9
	C138.7,76.8,149.4,87.5,149.4,100.7"/>
<path class="st2" d="M148.5,100.7c0,11.7-9.5,21.2-21.2,21.2s-21.2-9.5-21.2-21.2c0-11.7,9.5-21.2,21.2-21.2S148.5,89,148.5,100.7"
	/>
<path class="st3" d="M145,89.1c-3.8-5.8-10.3-9.6-17.7-9.6c-11.7,0-21.2,9.5-21.2,21.2c0,0.5,0,0.9,0.1,1.4
	C110.9,95.3,123.4,81.9,145,89.1"/>
<path class="st4" d="M144.3,104.3c0,6-4.9,11-10.9,11c-6,0-11-4.9-11-11c0-6,4.9-10.9,11-10.9C139.4,93.3,144.3,98.2,144.3,104.3"/>
<path class="st2" d="M131.4,101.7c0,1.7-1.3,3-3,3c-1.7,0-3-1.3-3-3c0-1.7,1.3-3,3-3C130,98.7,131.4,100.1,131.4,101.7"/>
<path class="st4" d="M178.2,174.4c-2.6-8.3-14.1-40.1-28.1-37.5c-14.1,2.6-23.9,27.1-27.1,34.9c-3.1,7.8-6.2,15.1,0.5,18.2
	c6.8,3.1,14.6-4.7,22.9-8.8c8.3-4.2,20.3,8.3,27.6,6.8C181.3,186.4,179.9,180,178.2,174.4"/>
<path class="st2" d="M144,139.5c-2.8,1.8-5.4,4.4-7.7,7.4l7,9.8L144,139.5z"/>
<path class="st2" d="M164.4,145.4c-2.3-3.1-4.8-5.6-7.5-7.1l3.8,16L164.4,145.4z"/>
<path class="st2" d="M160.9,183.8c2.8,1.4,5.6,2.9,8.2,3.7l-4.1-14.7L160.9,183.8z"/>
<path class="st2" d="M135.5,187.7c2.6-1.5,5.2-3.3,7.9-4.9l-6.4-10.9L135.5,187.7z"/>
<path class="st5" d="M106.4,185.4c0-0.1,0-0.3,0-0.4c0.1-1-0.5-3.2-1.1-4c-1-1.5-2.3-3-4.2-3.3c-2.6-0.4-5.5-0.2-7.5,2
	c-1.4,1.6-1.9,2.6-2.7,4.6c-0.8,1.8-0.2,4.5,0.8,6.1c1.4,2.4,4,3.9,6.8,3.9c5.3,0,8.7-5,7.6-10C106.3,184.8,106.3,185.2,106.4,185.4
	"/>
<path class="st5" d="M106.4,185.4C106.4,185.8,106.5,186,106.4,185.4"/>
<path class="st5" d="M116.5,169.4c0,0,0-0.1,0-0.3c0-0.4-0.1-0.9-0.2-1.3c-0.5-2-2.7-3.3-4.7-2.6c-1.4,0.4-2.5,1.3-3.2,2.6
	c-1.4,2.4-0.1,5.6,2.6,6.4C114.1,174.9,116.8,172.3,116.5,169.4"/>
<path class="st5" d="M107.9,199c-3.1,0-5.6,2.6-5.6,5.6c0,3.1,2.6,5.6,5.6,5.6c3.1,0,5.6-2.6,5.6-5.6C113.5,201.5,111,199,107.9,199
	"/>
</svg>
