<?xml version="1.0" encoding="utf-8"?>
<!-- Generator: Adobe Illustrator 23.0.0, SVG Export Plug-In . SVG Version: 6.00 Build 0)  -->
<svg version="1.1" id="Layer_1" xmlns="http://www.w3.org/2000/svg" xmlns:xlink="http://www.w3.org/1999/xlink" x="0px" y="0px"
	 viewBox="0 0 300 300" style="enable-background:new 0 0 300 300;" xml:space="preserve">
<style type="text/css">
	.st0{fill-rule:evenodd;clip-rule:evenodd;fill:#7DC242;}
	.st1{fill:#7DC242;}
	.st2{fill:#FFFFFF;}
	.st3{fill:#301B0E;}
	.st4{fill:#BBD536;}
	.st5{fill-rule:evenodd;clip-rule:evenodd;fill:#64B646;}
	.st6{fill:none;}
</style>
<path class="st0" d="M131.7,193.3c-0.4,6.1-0.7,11.6-1.1,18.1c6.1,0,11.5,0.1,16.9,0c17.8-0.3,35.5-0.7,53.3-0.9
	c4.4,0,8.9,0.5,13.3,1.1c4.4,0.6,7.5,3.1,7.5,7.8c0,11.5-0.1,23-0.7,34.5c-0.2,4.3-3.4,6.9-8.1,6.9c-15,0-29.9-0.1-44.9,0
	c-11.8,0.2-23.7,0.9-35.5,1c-15.6,0.2-31.2,0.2-46.9,0c-7.8-0.1-10.7-2.4-11-10.3c-0.5-12.3,0.3-24.7,0.2-37
	c0-17.4-0.5-34.9-0.4-52.3c0.1-24.2,0.6-48.3,1-72.5c0.2-9.9,3.3-11.7,13.6-11.6c21.1,0.1,42.1,0.6,63.2,0.6
	c18.1,0,36.2-0.4,54.3-0.5c9.3,0,12.2,2.8,12.3,12c0.1,10,0.1,20.1-0.4,30.1c-0.3,6.2-3.1,8.9-9.3,9.4c-4.1,0.4-51.4,3.8-71,3.4
	c-6.2-0.1-6.4,0-6.7,6.5c-0.5,10.7,29.9,6.1,47.8,5.6c3.4-0.1,6.9,0.3,10.3,0.8c4.5,0.5,7.4,3.3,7.6,7.7c0.6,10,1.1,20.1,0.9,30.1
	c-0.2,9-3.8,11.9-12.8,11.8c-21.2-0.4-26.5-2-47.7-2.4C135.8,193.3,134.1,193.3,131.7,193.3"/>
<path class="st1" d="M120.9,77.8c3.3,14.7,17.9,24,32.7,20.7c14.7-3.3,24-17.9,20.7-32.7c-3.3-14.7-17.9-24-32.7-20.7
	S117.5,63,120.9,77.8"/>
<path class="st2" d="M121.9,77.5c2.9,13.1,15.9,21.3,29,18.4c13.1-2.9,21.3-15.9,18.4-29c-2.9-13.1-15.9-21.3-29-18.4
	C127.2,51.5,118.9,64.5,121.9,77.5"/>
<path class="st3" d="M154.7,67.2c-6.8-1.5-13.5,2.7-15,9.5s2.7,13.5,9.5,15s13.5-2.7,15-9.5C165.7,75.4,161.4,68.7,154.7,67.2"/>
<path class="st2" d="M150.4,76.1c-0.4,1.9-2.3,3-4.1,2.6c-1.9-0.4-3-2.3-2.6-4.1c0.4-1.9,2.3-3,4.1-2.6
	C149.6,72.4,150.8,74.2,150.4,76.1"/>
<path class="st4" d="M140.2,48.5c9.1-2,18.1,1.3,23.7,7.9c-10.3,1.1-28.5,5-42.5,18.3C120.2,62.6,128.1,51.3,140.2,48.5"/>
<path class="st3" d="M94.2,139.1c0,0,7.1-39.5,38.3-39.4s57.2,15.6,54.3,21.8c-3,6.2-32.5,2.8-46.9,4.2
	c-15.3,1.5-19.8,21.7-32.7,27.9C93.2,160.4,93.4,147.9,94.2,139.1"/>
<path class="st2" d="M106,113.1c-4,5.1-6.8,10.7-8.6,15.5l13,4.7L106,113.1z"/>
<path class="st2" d="M154.2,102.2c-4-0.9-8.3-1.6-12.7-2l5.3,13.2L154.2,102.2z"/>
<path class="st2" d="M108.9,152.7c3.1-1.9,5.7-4.6,8.2-7.6l-12.9-5.7L108.9,152.7z"/>
<path class="st2" d="M153.9,125.4c4.1,0,8.4,0.1,12.4,0.1l-5.8-12.1L153.9,125.4z"/>
<path class="st5" d="M97.7,193.7c-0.4-4.7-3.7-8.6-8.6-8.6c-5,0-8.3,3.9-8.6,8.6c-0.1,1.1-0.2,2.3-0.2,3.4c-0.1,4.8,4.1,8.9,8.9,8.9
	c4.7,0,9-4,8.9-8.9C97.9,196,97.8,194.9,97.7,193.7"/>
<path class="st5" d="M109.8,214.2c0.1-3.6-2.3-7-6.3-7c-4.5,0-8.6,5.6-5.6,9.7c2.2,3,5.4,4.8,9,2.9
	C109.2,218.6,109.9,216.4,109.8,214.2"/>
<path class="st5" d="M97.5,226.2c-0.3-0.6-0.7-1.2-1.2-1.6c-2.1-4.5-7.9-7.2-12.4-4.1c-2.6,1.8-4.8,4.2-5.4,7.4
	c-0.4,2.3-0.6,4-0.1,6.4c0.3,1.4,1.1,2.6,1.6,3.9c1.8,4.2,7.7,5.9,11.7,4.8c4.2-1.2,7.9-5.4,7.6-10
	C99.2,230.5,98.9,228.3,97.5,226.2"/>
<path class="st5" d="M108,247.3c-1.4-2.3-4-3.3-6.6-2.7c-0.8,0.2-1.6,0.6-2.3,0.9c-3,1.4-3.7,5.7-2.2,8.3c1.9,3.2,6.9,4.2,9.5,1.2
	c0.2-0.3,0.4-0.5,0.7-0.7C109.1,252.8,109.2,249.3,108,247.3"/>
<path class="st5" d="M128.3,224.4c-2.2-4.7-10.3-4.7-12.5,0c-0.9,2-1.5,3.7-1.8,5.9c-0.5,4.3,4,8,8,8s8.5-3.6,8-8
	C129.8,228.1,129.2,226.4,128.3,224.4"/>
<path class="st1" d="M121.9,82.1c-3.8,17-20.6,27.6-37.6,23.8S56.7,85.3,60.5,68.3c3.8-17,20.6-27.6,37.6-23.8
	C115.1,48.3,125.7,65.1,121.9,82.1"/>
<path class="st2" d="M120.8,81.8c-3.4,15-18.3,24.5-33.3,21.1S63,84.6,66.4,69.5c3.4-15,18.3-24.5,33.4-21.1
	C114.7,51.9,124.2,66.8,120.8,81.8"/>
<path class="st3" d="M99.4,69.9c-7.8-1.7-15.5,3.1-17.3,10.9c-1.7,7.8,3.1,15.5,10.9,17.3c7.8,1.7,15.5-3.2,17.3-10.9
	C112.1,79.4,107.2,71.7,99.4,69.9"/>
<path class="st2" d="M94.5,80.2c-0.5,2.1-2.6,3.5-4.7,3s-3.5-2.6-3-4.7s2.6-3.5,4.7-3C93.6,75.9,94.9,78,94.5,80.2"/>
<path class="st4" d="M99.7,48.5c-10.4-2.3-20.8,1.5-27.3,9c11.9,1.3,32.7,5.8,48.9,21C122.7,64.7,113.6,51.6,99.7,48.5"/>
<rect x="-419.5" y="-460.2" class="st6" width="1790" height="1790"/>
</svg>
