<?xml version="1.0" encoding="utf-8"?>
<!-- Generator: Adobe Illustrator 23.0.0, SVG Export Plug-In . SVG Version: 6.00 Build 0)  -->
<svg version="1.1" id="Layer_1" xmlns="http://www.w3.org/2000/svg" xmlns:xlink="http://www.w3.org/1999/xlink" x="0px" y="0px"
	 viewBox="0 0 300 300" style="enable-background:new 0 0 300 300;" xml:space="preserve">
<style type="text/css">
	.st0{fill-rule:evenodd;clip-rule:evenodd;fill:#FF6A00;}
	.st1{fill:#FF6A00;}
	.st2{fill:#FFFFFF;}
	.st3{fill:#311600;}
	.st4{fill-rule:evenodd;clip-rule:evenodd;fill:#D84200;}
</style>
<path class="st0" d="M69.3,117.9c3.8-12.8,16.6-25.7,31.3-34.6c12.5-7.5,26.1-10.7,40.3-12c19.6-1.7,38.5,1,55.9,11
	c7.5,4.3,13.7,10.3,18.8,17.2c14,18.9,18.7,39.8,14.9,63.2c-1.9,11.3-4.6,21.9-11,31.6c-9.3,14.2-22,23.5-38.1,29.1
	c-16.4,5.6-33,7.3-49.8,3.7c-13.7-2.9-27.2-7-38.5-15.8c-16.1-12.5-26.8-35.3-28-51.9C64,142.7,65.5,130.7,69.3,117.9 M146.1,112.6
	c-7,0.1-16.7,2.7-24,10.9c-11.9,13.4-13.5,41.3,5.4,55.4c14.2,10.5,35.2,8.7,46.8-4.6c8.7-10,9.7-21.8,7.8-34.2
	C179.6,123.9,166,112.5,146.1,112.6"/>
<path class="st1" d="M123.2,112c18.3-13.9,44.4-10.4,58.3,7.9c13.9,18.3,10.4,44.4-7.9,58.3c-18.3,13.9-44.4,10.4-58.3-7.9
	C101.3,152,104.9,125.9,123.2,112"/>
<path class="st2" d="M123.3,120.4c14.5-11.1,35.3-8.2,46.3,6.3c11,14.5,8.2,35.3-6.3,46.3c-14.5,11-35.3,8.2-46.3-6.3
	C105.9,152.1,108.7,131.4,123.3,120.4"/>
<path class="st3" d="M132.5,131.5c10.5,0.6,18.6,9.7,17.9,20.2c-0.6,10.5-9.7,18.6-20.2,17.9c-10.5-0.6-18.5-9.7-17.9-20.2
	C112.9,138.9,122,130.9,132.5,131.5"/>
<path class="st2" d="M137.7,148.1c2.9,0.2,5.1,2.7,4.9,5.5c-0.2,2.9-2.7,5.1-5.5,4.9c-2.9-0.2-5.1-2.7-4.9-5.5
	C132.3,150.2,134.8,148,137.7,148.1"/>
<path class="st3" d="M165.2,188.5c0,0,19,2,22-14c3-16,6-22,14-19c8,3,20,34-2,45.1C177.2,211.5,159.2,202.5,165.2,188.5"/>
<path class="st2" d="M185.8,178.6c-2.1,4.6-5.8,7.1-9.5,8.4l15.4,2.7L185.8,178.6z"/>
<path class="st2" d="M190.3,162c-1,2.6-1.8,5.9-2.6,9.9H200L190.3,162z"/>
<path class="st2" d="M211.6,176.4c-0.3-3-0.9-6-1.9-8.7l-7,6.7L211.6,176.4z"/>
<path class="st2" d="M179.5,205.4c3.7,0.1,7.8-0.5,12.3-1.9l-11.4-9.8L179.5,205.4z"/>
<path class="st4" d="M200.1,93.4c-0.7-2.6-2.3-4.3-4.5-5.8c-1.1-0.8-2.5-1.1-3.7-1.6c-1.9-0.8-4.4-0.9-6.3-0.3
	c-2.7,0.8-4.7,2.1-6.2,4.5c-1.9,2.8-1.5,5.9-0.2,8.8c-0.2-0.6-0.5-1.1-0.7-1.7c0.4,1.6,1.2,2.9,2.4,4.1c0.9,0.9,1.8,1.6,2.8,2.3
	c2,1.4,4.7,2,7.1,2.2c4.3,0.3,8.3-3.2,9.4-7.2C200.6,96.8,200.6,95.1,200.1,93.4"/>
<path class="st4" d="M197.7,112.7c-1.5-0.7-2.8-0.8-4.5-0.9c-2.5-0.1-4.6,2.2-4.6,4.6c0,2.4,2.1,4.7,4.6,4.6
	c2.7-0.1,5.6-0.8,6.3-3.9C199.8,115.4,199.3,113.5,197.7,112.7"/>
<path class="st4" d="M218.3,112.7C218.3,112.7,218.3,112.6,218.3,112.7c-0.6-1-2.3-3-0.7-0.9c-0.1-0.1-0.1-0.1,0,0
	c-1.5-1.9-3.3-3.3-5.9-3.3c-2.5,0-4.9,1.3-6.1,3.5c-1.2,2.1-1.4,4.3-0.8,6.6c0.4,1.8,1.2,3.7,2.7,4.9c2.1,1.8,4.6,2.7,7.4,1.9
	c3.4-0.9,5.3-3.9,5.6-7.3C220.5,115.9,219.5,114.3,218.3,112.7"/>
<path class="st4" d="M210.5,128.9c-3,0-5.5,2.5-5.5,5.5c0,3,2.5,5.5,5.5,5.5c3,0,5.5-2.5,5.5-5.5C216,131.4,213.5,128.9,210.5,128.9
	"/>
<path class="st4" d="M166.6,90.8c-1-3.5-4.4-5.1-7.8-4.4c-1,0.2-1.9,0.6-2.7,1.2c-3,1.9-4.2,5.7-2.3,8.9c2,3.4,7.1,4.3,10,1.5
	C166.2,96.6,167.3,93.3,166.6,90.8"/>
</svg>
