<?xml version="1.0" encoding="utf-8"?>
<!-- Generator: Adobe Illustrator 23.0.0, SVG Export Plug-In . SVG Version: 6.00 Build 0)  -->
<svg version="1.1" id="Layer_1" xmlns="http://www.w3.org/2000/svg" xmlns:xlink="http://www.w3.org/1999/xlink" x="0px" y="0px"
	 viewBox="0 0 300 300" style="enable-background:new 0 0 300 300;" xml:space="preserve">
<style type="text/css">
	.st0{fill-rule:evenodd;clip-rule:evenodd;fill:#00E220;}
	.st1{fill:#166D18;}
	.st2{fill:#FFFFFF;}
	.st3{fill:#311600;}
	.st4{fill-rule:evenodd;clip-rule:evenodd;fill:#166D18;}
	.st5{fill-rule:evenodd;clip-rule:evenodd;fill:#FF9D00;}
	.st6{fill:#BC6F00;}
	.st7{fill:#FFB243;}
	.st8{fill-rule:evenodd;clip-rule:evenodd;fill:#BC6F00;}
</style>
<g>
	<path class="st0" d="M5,123.6c3.6-12,15.6-24.2,29.4-32.5C46.2,84,59,81,72.3,79.8c18.4-1.6,36.2,0.9,52.5,10.3
		c7.1,4,12.9,9.7,17.7,16.2c13.2,17.8,17.6,37.4,14,59.4c-1.8,10.6-4.3,20.6-10.3,29.7c-8.7,13.3-20.7,22.1-35.8,27.4
		c-15.4,5.3-31,6.9-46.8,3.5c-12.9-2.7-25.6-6.6-36.2-14.9c-15.1-11.8-25.2-33.2-26.3-48.8C0,146.9,1.5,135.6,5,123.6 M77.2,118.6
		c-6.6,0.1-15.7,2.5-22.6,10.2c-11.2,12.6-12.7,38.8,5.1,52.1c13.3,9.9,33.1,8.2,44-4.3c8.2-9.4,9.1-20.5,7.3-32.1
		C108.7,129.2,95.9,118.5,77.2,118.6"/>
	<path class="st1" d="M55.7,118c17.2-13.1,41.7-9.8,54.8,7.4s9.8,41.7-7.4,54.8c-17.2,13.1-41.7,9.8-54.8-7.4
		C35.1,155.6,38.5,131.1,55.7,118"/>
	<path class="st2" d="M55.8,125.9c13.6-10.4,33.2-7.7,43.5,5.9s7.7,33.2-5.9,43.5s-33.2,7.7-43.5-5.9
		C39.4,155.7,42.1,136.3,55.8,125.9"/>
	<path class="st3" d="M64.4,136.3c9.9,0.6,17.5,9.1,16.8,19c-0.6,9.9-9.1,17.5-19,16.8c-9.9-0.6-17.4-9.1-16.8-19
		C46,143.3,54.6,135.8,64.4,136.3"/>
	<path class="st2" d="M69.3,152c2.7,0.2,4.8,2.5,4.6,5.2c-0.2,2.7-2.5,4.8-5.2,4.6c-2.7-0.2-4.8-2.5-4.6-5.2
		C64.2,153.9,66.6,151.9,69.3,152"/>
	<path class="st3" d="M95.2,189.9c0,0,17.9,1.9,20.7-13.2s5.6-20.7,13.2-17.9c7.5,2.8,18.8,32-1.9,42.4
		C106.5,211.5,89.5,203.1,95.2,189.9"/>
	<path class="st2" d="M114.5,180.6c-2,4.3-5.5,6.7-8.9,7.9l14.5,2.5L114.5,180.6z"/>
	<path class="st2" d="M118.8,165c-0.9,2.4-1.7,5.5-2.4,9.3h11.6L118.8,165z"/>
	<path class="st2" d="M138.8,178.6c-0.3-2.8-0.8-5.6-1.8-8.2l-6.6,6.3L138.8,178.6z"/>
	<path class="st2" d="M108.6,205.8c3.5,0.1,7.3-0.5,11.6-1.8l-10.7-9.2L108.6,205.8z"/>
	<path class="st4" d="M128,100.5c-0.7-2.4-2.2-4-4.2-5.5c-1-0.8-2.4-1-3.5-1.5c-1.8-0.8-4.1-0.8-5.9-0.3c-2.5,0.8-4.4,2-5.8,4.2
		c-1.8,2.6-1.4,5.5-0.2,8.3c-0.2-0.6-0.5-1-0.7-1.6c0.4,1.5,1.1,2.7,2.3,3.9c0.8,0.8,1.7,1.5,2.6,2.2c1.9,1.3,4.4,1.9,6.7,2.1
		c4,0.3,7.8-3,8.8-6.8C128.5,103.7,128.5,102.1,128,100.5"/>
	<path class="st4" d="M125.7,118.7c-1.4-0.7-2.6-0.8-4.2-0.8c-2.4-0.1-4.3,2.1-4.3,4.3s2,4.4,4.3,4.3c2.5-0.1,5.3-0.8,5.9-3.7
		C127.7,121.2,127.2,119.4,125.7,118.7"/>
	<path class="st4" d="M145.1,118.7C145.1,118.7,145.1,118.6,145.1,118.7c-0.6-0.9-2.2-2.8-0.7-0.8c-0.1-0.1-0.1-0.1,0,0
		c-1.4-1.8-3.1-3.1-5.5-3.1c-2.4,0-4.6,1.2-5.7,3.3c-1.1,2-1.3,4-0.8,6.2c0.4,1.7,1.1,3.5,2.5,4.6c2,1.7,4.3,2.5,7,1.8
		c3.2-0.8,5-3.7,5.3-6.9C147.2,121.7,146.2,120.2,145.1,118.7"/>
	<path class="st4" d="M137.8,133.9c-2.8,0-5.2,2.4-5.2,5.2s2.4,5.2,5.2,5.2s5.2-2.4,5.2-5.2S140.6,133.9,137.8,133.9"/>
	<path class="st4" d="M96.5,98.1c-0.9-3.3-4.1-4.8-7.3-4.1c-0.9,0.2-1.8,0.6-2.5,1.1c-2.8,1.8-3.9,5.4-2.2,8.4
		c1.9,3.2,6.7,4,9.4,1.4C96.1,103.5,97.1,100.4,96.5,98.1"/>
</g>
<g>
	<path class="st5" d="M172.9,142.1c0-7.7,1.4-9.3,9.1-9.3c5.1,0,10.3,0.2,15.5,0.5c3.7,0.1,5.4,1.7,5.5,5.5
		c0.2,5.1-0.3,35.1-0.1,44.9c0.1,4.1,0.9,8.2,2.1,12.1c1.9,6.3,7.5,8,13.4,7.4c9.5-0.9,13.3-7.6,13.5-17.9
		c0.1-5.8-0.3-35.3-0.5-44.3c-0.1-5.5,1.8-7.6,7.3-7.6c5.1,0.1,10.1,0,15.2,0.1c1.4,0,2.9,0.2,4.3,0.5c2.1,0.5,3.5,1.8,3.5,4.1
		c0,11.1,0.4,44.4,0.1,49.9c-0.3,7.4-1.8,14.6-5.1,21.3c-4.4,9.1-12,14.3-21.1,17.4c-13,4.3-26.3,3.8-39-1
		c-12.9-4.9-19.5-15.7-22.3-28.7c-1.1-5-0.9-10.2-1.1-15.3C172.7,175.9,172.9,149.7,172.9,142.1"/>
	<path class="st6" d="M214.8,146.2c-2.3,10.5-12.8,17.1-23.3,14.8c-10.5-2.3-17.1-12.8-14.8-23.3s12.8-17.1,23.3-14.8
		C210.5,125.2,217.1,135.7,214.8,146.2"/>
	<path class="st2" d="M213,146.6c-1.9,8.6-10.4,14-19,12.1c-8.6-1.9-14-10.4-12.1-19s10.4-13.9,19-12.1
		C209.5,129.5,214.9,138.1,213,146.6"/>
	<path class="st3" d="M200.9,139.9c-4.5-1-8.9,1.8-9.9,6.3c-1,4.5,1.8,8.9,6.3,9.9c4.5,1,8.9-1.8,9.9-6.3
		C208.1,145.3,205.3,140.9,200.9,139.9"/>
	<path class="st2" d="M198,145.7c-0.3,1.2-1.5,2-2.7,1.7c-1.2-0.3-2-1.5-1.7-2.7c0.3-1.2,1.5-2,2.7-1.7
		C197.5,143.3,198.3,144.5,198,145.7"/>
	<path class="st7" d="M201,127.6c-5.9-1.3-11.9,0.9-15.5,5.1c6.8,0.7,18.7,3.3,27.9,12C214.1,136.9,208.9,129.4,201,127.6"/>
	<path class="st6" d="M229.1,145.9c2.1,9.2,11.2,15,20.4,12.9c9.2-2.1,15-11.2,12.9-20.4c-2.1-9.2-11.2-15-20.4-12.9
		C232.8,127.5,227,136.7,229.1,145.9"/>
	<path class="st2" d="M230.7,145.5c1.7,7.7,9.3,12.5,17,10.7c7.7-1.7,12.5-9.3,10.7-17s-9.3-12.5-17-10.7
		C233.8,130.3,229,137.9,230.7,145.5"/>
	<path class="st3" d="M244.8,141.1c-3.9-0.9-7.9,1.6-8.8,5.6c-0.9,3.9,1.6,7.9,5.6,8.8c3.9,0.9,7.9-1.6,8.8-5.6
		C251.3,145.9,248.8,142,244.8,141.1"/>
	<path class="st2" d="M242.3,146.3c-0.3,1.1-1.3,1.8-2.4,1.5c-1.1-0.3-1.8-1.3-1.5-2.4s1.3-1.8,2.4-1.5
		C241.9,144.2,242.6,145.3,242.3,146.3"/>
	<path class="st7" d="M241.4,128.5c5.3-1.2,10.6,0.7,13.9,4.6c-6.1,0.7-16.7,2.9-24.9,10.7C229.7,136.8,234.4,130.1,241.4,128.5"/>
	<path class="st3" d="M197.6,191.4c7,2.3,3.7,19.1,21.5,15.9s14-24.7,20.5-25.2c6.5-0.5,12.6,17.7,6.5,30.8
		c-6.1,13.1-31.7,17.7-45.7,3.7C186.4,202.5,190.6,189.1,197.6,191.4"/>
	<path class="st2" d="M205.7,203.5c-1.3-1.6-2.1-3.5-2.9-5.3l-2.9,8.5L205.7,203.5z"/>
	<path class="st2" d="M234.2,191.5c-0.7,2.2-1.5,4.5-2.8,6.7l6.7,3.8L234.2,191.5z"/>
	<path class="st2" d="M203.1,218.9c2.6,2,5.5,3.5,8.5,4.5l-2.3-11L203.1,218.9z"/>
	<path class="st2" d="M237.2,221.5c2.8-1.5,5.2-3.3,7-5.6l-10.1-4.5L237.2,221.5z"/>
	<path class="st8" d="M256.8,168.7c-0.1-0.7-0.5-1.5-0.8-2.1c-1-2-3.4-3.5-5.6-3.2c-1.9,0.3-4.1,1.3-4.5,3.4
		c-0.1,0.6-0.2,1.1-0.2,1.7c-0.1,1.1,0.3,2,0.7,2.9c0.1,0.3,0.3,0.5,0.5,0.8c-0.5-1.2-0.4-1.1,0.2,0.5c0.3,0.5,0.6,0.9,1,1.2
		c1.1,0.9,2.2,1.5,3.7,1.5c1.7,0,3.7-0.9,4.5-2.5C256.8,171.5,257.2,170.3,256.8,168.7"/>
	<path class="st8" d="M255.8,178.2c-0.1-0.1-0.2-0.1-0.3-0.1c-2.3-0.8-4.6,1.3-4.6,3.5c0,2.2,2.3,4.3,4.6,3.5
		c0.4-0.1,0.8-0.3,1.1-0.5c1.1-0.7,1.7-1.7,1.7-3C258.4,179.9,257.2,178.8,255.8,178.2"/>
	<path class="st8" d="M182.3,169.1c-1.7-1-4.5-0.5-5.4,1.4c0,0,0,0,0,0.1c-0.1,0.1-0.2,0.2-0.3,0.3c-1.6,1.5-1.5,4.2,0,5.7
		c1.5,1.5,4.2,1.6,5.7,0c0.9-0.9,1.4-1.8,1.9-2.9C184.8,171.9,183.7,169.9,182.3,169.1"/>
	<path class="st8" d="M184.4,184.9c-0.2-0.6-0.7-1.1-1.2-1.4c-1.7-1.1-4.1,0.3-4.1,2.3c0,2.8,3.5,3.5,5,1.3
		C184.5,186.5,184.6,185.6,184.4,184.9"/>
	<path class="st8" d="M185.4,193.3c-1.2-2-4-2.9-6.1-1.6c-2.6,1.7-3.5,5.4-0.9,7.7c1.8,1.6,4.1,1.5,5.9,0c0.4-0.3,0.7-0.7,0.9-1.1
		C186.2,196.9,186.3,194.9,185.4,193.3"/>
	<path class="st8" d="M188.6,174.3c-2.1-0.5-3.7,0.7-4.5,2.5c-0.1,0.3-0.3,0.7-0.3,1.1c-0.3,2,0.5,3.9,2.5,4.5
		c2.4,0.7,4.5-1.2,4.7-3.5c-0.1,1.2,0,0.3,0.1-0.1C191.7,176.8,190.5,174.8,188.6,174.3"/>
</g>
</svg>
