<?xml version="1.0" encoding="utf-8"?>
<!-- Generator: Adobe Illustrator 23.0.0, SVG Export Plug-In . SVG Version: 6.00 Build 0)  -->
<svg version="1.1" id="Layer_1" xmlns="http://www.w3.org/2000/svg" xmlns:xlink="http://www.w3.org/1999/xlink" x="0px" y="0px"
	 viewBox="0 0 300 300" style="enable-background:new 0 0 300 300;" xml:space="preserve">
<style type="text/css">
	.st0{fill-rule:evenodd;clip-rule:evenodd;fill:#FF6A00;}
	.st1{fill:#FF6A00;}
	.st2{fill:#FFFFFF;}
	.st3{fill:#FF9500;}
	.st4{fill:#311600;}
	.st5{fill-rule:evenodd;clip-rule:evenodd;fill:#D84200;}
	.st6{fill-rule:evenodd;clip-rule:evenodd;fill:#00AEB5;}
	.st7{fill:#00AEB5;}
	.st8{fill:#39CCD6;}
	.st9{fill-rule:evenodd;clip-rule:evenodd;fill:#009597;}
</style>
<g id="A">
	<path class="st0" d="M138,227.8c-4.9,0.2-9.7,0.4-14.6,0.7c-6.2,0.4-8.3-0.8-10.6-6.5c-1.7-4.2-3.1-8.4-4.9-12.5
		c-0.5-1.1-2.2-2.4-3.3-2.5c-16.6-0.6-33.2-1-49.7-1.2c-1.2,0-3.1,1.5-3.6,2.7c-1.7,4-2.9,8.2-4.4,12.3c-1.7,4.8-5.2,7.1-10.2,7.1
		c-8.6,0-17.2,0-25.8,0.1c-7.5,0.1-11.1-4.5-8.6-11.6c1.7-4.8,3.9-9.4,6-14.1c15.8-35.4,31.6-70.8,47.2-106.2
		c1.8-4.1,4.7-5.8,8.6-5.9C74.7,90,85.3,90,95.9,90.1c4.1,0,6.9,2.1,8.5,6.1c2.9,7,6.1,13.9,9.1,20.9c7.9,18.6,15.6,37.2,23.7,55.7
		c5.1,11.6,10.9,23,16.3,34.5c1.7,3.6,3.1,7.3,4.4,11.1c1.7,5.1-0.6,9.1-6,9.7c-4.6,0.5-9.2,0.1-13.8,0.1
		C138,228,138,227.9,138,227.8"/>
	<path class="st1" d="M125.8,93.8c0,13.2-10.7,23.9-23.8,23.9c-13.2,0-23.9-10.7-23.9-23.9S88.8,69.9,102,69.9
		C115.1,69.9,125.8,80.6,125.8,93.8"/>
	<path class="st2" d="M124.9,93.8c0,11.7-9.5,21.2-21.1,21.2c-11.7,0-21.2-9.5-21.2-21.2s9.5-21.1,21.2-21.1
		C115.4,72.6,124.9,82.1,124.9,93.8"/>
	<path class="st3" d="M121.4,82.2c-3.8-5.8-10.3-9.6-17.7-9.6c-11.7,0-21.2,9.5-21.2,21.1c0,0.5,0,0.9,0.1,1.4
		C87.4,88.4,99.8,75,121.4,82.2"/>
	<path class="st4" d="M120.7,97.4c0,6-4.9,10.9-10.9,10.9s-11-4.9-11-10.9s4.9-10.9,11-10.9C115.8,86.4,120.7,91.4,120.7,97.4"/>
	<path class="st2" d="M107.8,94.8c0,1.7-1.3,3-3,3s-3-1.3-3-3s1.3-3,3-3C106.5,91.9,107.8,93.2,107.8,94.8"/>
	<path class="st1" d="M80.4,100.7c0,13.2-10.7,23.9-23.9,23.9s-23.9-10.7-23.9-23.9s10.7-23.9,23.9-23.9
		C69.7,76.8,80.4,87.5,80.4,100.7"/>
	<path class="st2" d="M79.5,100.7c0,11.7-9.5,21.2-21.2,21.2s-21.2-9.5-21.2-21.2s9.5-21.2,21.2-21.2S79.5,89,79.5,100.7"/>
	<path class="st3" d="M76,89.1c-3.8-5.8-10.3-9.6-17.7-9.6c-11.7,0-21.2,9.5-21.2,21.2c0,0.5,0,0.9,0.1,1.4
		C41.9,95.3,54.4,81.9,76,89.1"/>
	<path class="st4" d="M75.3,104.3c0,6-4.9,11-10.9,11s-11-4.9-11-11c0-6,4.9-10.9,11-10.9C70.4,93.3,75.3,98.2,75.3,104.3"/>
	<path class="st2" d="M62.4,101.7c0,1.7-1.3,3-3,3s-3-1.3-3-3s1.3-3,3-3C61,98.7,62.4,100.1,62.4,101.7"/>
	<path class="st4" d="M109.2,174.4c-2.6-8.3-14.1-40.1-28.1-37.5C67,139.5,57.2,164,54,171.8c-3.1,7.8-6.2,15.1,0.5,18.2
		c6.8,3.1,14.6-4.7,22.9-8.8c8.3-4.2,20.3,8.3,27.6,6.8C112.3,186.4,110.9,180,109.2,174.4"/>
	<path class="st2" d="M75,139.5c-2.8,1.8-5.4,4.4-7.7,7.4l7,9.8L75,139.5z"/>
	<path class="st2" d="M95.4,145.4c-2.3-3.1-4.8-5.6-7.5-7.1l3.8,16L95.4,145.4z"/>
	<path class="st2" d="M91.9,183.8c2.8,1.4,5.6,2.9,8.2,3.7L96,172.8L91.9,183.8z"/>
	<path class="st5" d="M66.5,187.7c2.6-1.5,5.2-3.3,7.9-4.9L68,171.9L66.5,187.7z"/>
	<path class="st5" d="M37.4,185.4c0-0.1,0-0.3,0-0.4c0.1-1-0.5-3.2-1.1-4c-1-1.5-2.3-3-4.2-3.3c-2.6-0.4-5.5-0.2-7.5,2
		c-1.4,1.6-1.9,2.6-2.7,4.6c-0.8,1.8-0.2,4.5,0.8,6.1c1.4,2.4,4,3.9,6.8,3.9c5.3,0,8.7-5,7.6-10C37.3,184.8,37.3,185.2,37.4,185.4"
		/>
	<path class="st5" d="M37.4,185.4C37.4,185.8,37.5,186,37.4,185.4"/>
	<path class="st5" d="M47.5,169.4c0,0,0-0.1,0-0.3c0-0.4-0.1-0.9-0.2-1.3c-0.5-2-2.7-3.3-4.7-2.6c-1.4,0.4-2.5,1.3-3.2,2.6
		c-1.4,2.4-0.1,5.6,2.6,6.4C45.1,174.9,47.8,172.3,47.5,169.4"/>
	<path class="st5" d="M38.9,199c-3.1,0-5.6,2.6-5.6,5.6c0,3.1,2.6,5.6,5.6,5.6c3.1,0,5.6-2.6,5.6-5.6C44.5,201.5,42,199,38.9,199"/>
</g>
<g id="u">
	<path class="st6" d="M172,140.1c0-7.7,1.4-9.3,9.1-9.3c5.1,0,10.3,0.2,15.5,0.5c3.7,0.1,5.4,1.7,5.5,5.5c0.2,5.1-0.3,35.1-0.1,44.9
		c0.1,4.1,0.9,8.2,2.1,12.1c1.9,6.3,7.5,8,13.4,7.4c9.5-0.9,13.3-7.6,13.5-17.9c0.1-5.8-0.3-35.3-0.5-44.3c-0.1-5.5,1.8-7.6,7.3-7.6
		c5.1,0.1,10.1,0,15.2,0.1c1.4,0,2.9,0.2,4.3,0.5c2.1,0.5,3.5,1.8,3.5,4.1c0,11.1,0.4,44.4,0.1,49.9c-0.3,7.4-1.8,14.6-5.1,21.3
		c-4.4,9.1-12,14.3-21.1,17.4c-13,4.3-26.3,3.8-39-1c-12.9-4.9-19.5-15.7-22.3-28.7c-1.1-5-0.9-10.2-1.1-15.3
		C171.9,173.9,172,147.7,172,140.1"/>
	<path class="st7" d="M213.4,144.2c-2.3,10.5-12.8,17.1-23.3,14.8c-10.5-2.3-17.1-12.8-14.8-23.3s12.8-17.1,23.3-14.8
		C209.1,123.2,215.7,133.7,213.4,144.2"/>
	<path class="st2" d="M212.2,144.6c-1.9,8.6-10.4,14-19,12.1s-14-10.4-12.1-19c1.9-8.6,10.4-13.9,19-12.1
		C208.7,127.5,214.1,136.1,212.2,144.6"/>
	<path class="st4" d="M200,137.9c-4.5-1-8.9,1.8-9.9,6.3c-1,4.5,1.8,8.9,6.3,9.9c4.5,1,8.9-1.8,9.9-6.3
		C207.2,143.3,204.4,138.9,200,137.9"/>
	<path class="st2" d="M197.2,143.7c-0.3,1.2-1.5,2-2.7,1.7c-1.2-0.3-2-1.5-1.7-2.7c0.3-1.2,1.5-2,2.7-1.7
		C196.7,141.3,197.5,142.5,197.2,143.7"/>
	<path class="st8" d="M200.2,125.6c-5.9-1.3-11.9,0.9-15.5,5.1c6.8,0.7,18.7,3.3,27.9,12C213.3,134.9,208.1,127.4,200.2,125.6"/>
	<path class="st7" d="M228.2,143.9c2.1,9.2,11.2,15,20.4,12.9s15-11.2,12.9-20.4c-2.1-9.2-11.2-15-20.4-12.9
		C232,125.5,226.2,134.7,228.2,143.9"/>
	<path class="st2" d="M229.8,143.5c1.7,7.7,9.3,12.5,17,10.7c7.7-1.7,12.5-9.3,10.7-17c-1.7-7.7-9.3-12.5-17-10.7
		C233,128.3,228.1,135.9,229.8,143.5"/>
	<path class="st4" d="M244,139.1c-3.9-0.9-7.9,1.6-8.8,5.6c-0.9,3.9,1.6,7.9,5.6,8.8c3.9,0.9,7.9-1.6,8.8-5.6
		C250.4,143.9,248,140,244,139.1"/>
	<path class="st2" d="M241.4,144.3c-0.3,1.1-1.3,1.8-2.4,1.5c-1.1-0.3-1.8-1.3-1.5-2.4s1.3-1.8,2.4-1.5
		C241,142.2,241.7,143.3,241.4,144.3"/>
	<path class="st8" d="M240.6,126.5c5.3-1.2,10.6,0.7,13.9,4.6c-6.1,0.7-16.7,2.9-24.9,10.7C228.8,134.8,233.5,128.1,240.6,126.5"/>
	<path class="st4" d="M196.8,189.4c7,2.3,3.7,19.1,21.5,15.9c17.7-3.3,14-24.7,20.5-25.2s12.6,17.7,6.5,30.8s-31.7,17.7-45.7,3.7
		C185.6,200.5,189.8,187.1,196.8,189.4"/>
	<path class="st2" d="M204.9,201.5c-1.3-1.6-2.1-3.5-2.9-5.3l-2.9,8.5L204.9,201.5z"/>
	<path class="st2" d="M233.4,189.5c-0.7,2.2-1.5,4.5-2.8,6.7l6.7,3.8L233.4,189.5z"/>
	<path class="st2" d="M202.2,216.9c2.6,2,5.5,3.5,8.5,4.5l-2.3-11L202.2,216.9z"/>
	<path class="st2" d="M236.4,219.5c2.8-1.5,5.2-3.3,7-5.6l-10.1-4.5L236.4,219.5z"/>
	<path class="st9" d="M255.9,166.7c-0.1-0.7-0.5-1.5-0.8-2.1c-1-2-3.4-3.5-5.6-3.2c-1.9,0.3-4.1,1.3-4.5,3.4
		c-0.1,0.6-0.2,1.1-0.2,1.7c-0.1,1.1,0.3,2,0.7,2.9c0.1,0.3,0.3,0.5,0.5,0.8c-0.5-1.2-0.4-1.1,0.2,0.5c0.3,0.5,0.6,0.9,1,1.2
		c1.1,0.9,2.2,1.5,3.7,1.5c1.7,0,3.7-0.9,4.5-2.5C256,169.5,256.3,168.3,255.9,166.7"/>
	<path class="st9" d="M255,176.2c-0.1-0.1-0.2-0.1-0.3-0.1c-2.3-0.8-4.6,1.3-4.6,3.5c0,2.2,2.3,4.3,4.6,3.5c0.4-0.1,0.8-0.3,1.1-0.5
		c1.1-0.7,1.7-1.7,1.7-3C257.5,177.9,256.4,176.8,255,176.2"/>
	<path class="st9" d="M181.5,167.1c-1.7-1-4.5-0.5-5.4,1.4c0,0,0,0,0,0.1c-0.1,0.1-0.2,0.2-0.3,0.3c-1.6,1.5-1.5,4.2,0,5.7
		s4.2,1.6,5.7,0c0.9-0.9,1.4-1.8,1.9-2.9C184,169.9,182.9,167.9,181.5,167.1"/>
	<path class="st9" d="M183.6,182.9c-0.2-0.6-0.7-1.1-1.2-1.4c-1.7-1.1-4.1,0.3-4.1,2.3c0,2.8,3.5,3.5,5,1.3
		C183.6,184.5,183.8,183.6,183.6,182.9"/>
	<path class="st9" d="M184.6,191.3c-1.2-2-4-2.9-6.1-1.6c-2.6,1.7-3.5,5.4-0.9,7.7c1.8,1.6,4.1,1.5,5.9,0c0.4-0.3,0.7-0.7,0.9-1.1
		C185.4,194.9,185.4,192.9,184.6,191.3"/>
	<path class="st9" d="M187.8,172.3c-2.1-0.5-3.7,0.7-4.5,2.5c-0.1,0.3-0.3,0.7-0.3,1.1c-0.3,2,0.5,3.9,2.5,4.5
		c2.4,0.7,4.5-1.2,4.7-3.5c-0.1,1.2,0,0.3,0.1-0.1C190.8,174.8,189.6,172.8,187.8,172.3"/>
</g>
</svg>
