<?xml version="1.0" encoding="utf-8"?>
<!-- Generator: Adobe Illustrator 23.0.0, SVG Export Plug-In . SVG Version: 6.00 Build 0)  -->
<svg version="1.1" id="Layer_1" xmlns="http://www.w3.org/2000/svg" xmlns:xlink="http://www.w3.org/1999/xlink" x="0px" y="0px"
	 viewBox="0 0 300 300" style="enable-background:new 0 0 300 300;" xml:space="preserve">
<style type="text/css">
	.st0{fill-rule:evenodd;clip-rule:evenodd;fill:#FF6A00;}
	.st1{fill:#FF6A00;}
	.st2{fill:#FFFFFF;}
	.st3{fill:#FF9500;}
	.st4{fill:#311600;}
	.st5{fill-rule:evenodd;clip-rule:evenodd;fill:#D84200;}
</style>
<path class="st0" d="M138,227.8c-4.9,0.2-9.7,0.4-14.6,0.7c-6.2,0.4-8.3-0.8-10.6-6.5c-1.7-4.2-3.1-8.4-4.9-12.5
	c-0.5-1.1-2.2-2.4-3.3-2.5c-16.6-0.6-33.2-1-49.7-1.2c-1.2,0-3.1,1.5-3.6,2.7c-1.7,4-2.9,8.2-4.4,12.3c-1.7,4.8-5.2,7.1-10.2,7.1
	c-8.6,0-17.2,0-25.8,0.1c-7.5,0.1-11.1-4.5-8.6-11.6c1.7-4.8,3.9-9.4,6-14.1c15.8-35.4,31.6-70.8,47.2-106.2
	c1.8-4.1,4.7-5.8,8.6-5.9C74.7,90,85.3,90,95.9,90.1c4.1,0,6.9,2.1,8.5,6.1c2.9,7,6.1,13.9,9.1,20.9c7.9,18.6,15.6,37.2,23.7,55.7
	c5.1,11.6,10.9,23,16.3,34.5c1.7,3.6,3.1,7.3,4.4,11.1c1.7,5.1-0.6,9.1-6,9.7c-4.6,0.5-9.2,0.1-13.8,0.1
	C138,228,138,227.9,138,227.8"/>
<path class="st1" d="M125.8,93.8c0,13.2-10.7,23.9-23.8,23.9c-13.2,0-23.9-10.7-23.9-23.9S88.8,69.9,102,69.9
	C115.1,69.9,125.8,80.6,125.8,93.8"/>
<path class="st2" d="M124.9,93.8c0,11.7-9.5,21.2-21.1,21.2c-11.7,0-21.2-9.5-21.2-21.2s9.5-21.1,21.2-21.1
	C115.4,72.6,124.9,82.1,124.9,93.8"/>
<path class="st3" d="M121.4,82.2c-3.8-5.8-10.3-9.6-17.7-9.6c-11.7,0-21.2,9.5-21.2,21.1c0,0.5,0,0.9,0.1,1.4
	C87.4,88.4,99.8,75,121.4,82.2"/>
<path class="st4" d="M120.7,97.4c0,6-4.9,10.9-10.9,10.9s-11-4.9-11-10.9s4.9-10.9,11-10.9C115.8,86.4,120.7,91.4,120.7,97.4"/>
<path class="st2" d="M107.8,94.8c0,1.7-1.3,3-3,3s-3-1.3-3-3s1.3-3,3-3C106.5,91.9,107.8,93.2,107.8,94.8"/>
<path class="st1" d="M80.4,100.7c0,13.2-10.7,23.9-23.9,23.9s-23.9-10.7-23.9-23.9s10.7-23.9,23.9-23.9
	C69.7,76.8,80.4,87.5,80.4,100.7"/>
<path class="st2" d="M79.5,100.7c0,11.7-9.5,21.2-21.2,21.2s-21.2-9.5-21.2-21.2s9.5-21.2,21.2-21.2S79.5,89,79.5,100.7"/>
<path class="st3" d="M76,89.1c-3.8-5.8-10.3-9.6-17.7-9.6c-11.7,0-21.2,9.5-21.2,21.2c0,0.5,0,0.9,0.1,1.4
	C41.9,95.3,54.4,81.9,76,89.1"/>
<path class="st4" d="M75.3,104.3c0,6-4.9,11-10.9,11s-11-4.9-11-11c0-6,4.9-10.9,11-10.9C70.4,93.3,75.3,98.2,75.3,104.3"/>
<path class="st2" d="M62.4,101.7c0,1.7-1.3,3-3,3s-3-1.3-3-3s1.3-3,3-3C61,98.7,62.4,100.1,62.4,101.7"/>
<path class="st4" d="M109.2,174.4c-2.6-8.3-14.1-40.1-28.1-37.5C67,139.5,57.2,164,54,171.8c-3.1,7.8-6.2,15.1,0.5,18.2
	c6.8,3.1,14.6-4.7,22.9-8.8c8.3-4.2,20.3,8.3,27.6,6.8C112.3,186.4,110.9,180,109.2,174.4"/>
<path class="st2" d="M75,139.5c-2.8,1.8-5.4,4.4-7.7,7.4l7,9.8L75,139.5z"/>
<path class="st2" d="M95.4,145.4c-2.3-3.1-4.8-5.6-7.5-7.1l3.8,16L95.4,145.4z"/>
<path class="st2" d="M91.9,183.8c2.8,1.4,5.6,2.9,8.2,3.7L96,172.8L91.9,183.8z"/>
<path class="st2" d="M66.5,187.7c2.6-1.5,5.2-3.3,7.9-4.9L68,171.9L66.5,187.7z"/>
<path class="st5" d="M37.4,185.4c0-0.1,0-0.3,0-0.4c0.1-1-0.5-3.2-1.1-4c-1-1.5-2.3-3-4.2-3.3c-2.6-0.4-5.5-0.2-7.5,2
	c-1.4,1.6-1.9,2.6-2.7,4.6c-0.8,1.8-0.2,4.5,0.8,6.1c1.4,2.4,4,3.9,6.8,3.9c5.3,0,8.7-5,7.6-10C37.3,184.8,37.3,185.2,37.4,185.4"/>
<path class="st5" d="M37.4,185.4C37.4,185.8,37.5,186,37.4,185.4"/>
<path class="st5" d="M47.5,169.4c0,0,0-0.1,0-0.3c0-0.4-0.1-0.9-0.2-1.3c-0.5-2-2.7-3.3-4.7-2.6c-1.4,0.4-2.5,1.3-3.2,2.6
	c-1.4,2.4-0.1,5.6,2.6,6.4C45.1,174.9,47.8,172.3,47.5,169.4"/>
<path class="st5" d="M38.9,199c-3.1,0-5.6,2.6-5.6,5.6c0,3.1,2.6,5.6,5.6,5.6c3.1,0,5.6-2.6,5.6-5.6C44.5,201.5,42,199,38.9,199"/>
</svg>
