<?xml version="1.0" encoding="utf-8"?>
<!-- Generator: Adobe Illustrator 23.0.0, SVG Export Plug-In . SVG Version: 6.00 Build 0)  -->
<svg version="1.1" id="Layer_1" xmlns="http://www.w3.org/2000/svg" xmlns:xlink="http://www.w3.org/1999/xlink" x="0px" y="0px"
	 viewBox="0 0 300 300" style="enable-background:new 0 0 300 300;" xml:space="preserve">
<style type="text/css">
	.st0{fill-rule:evenodd;clip-rule:evenodd;fill:#E30009;}
	.st1{fill:#E30009;}
	.st2{fill:#FFFFFF;}
	.st3{fill:#311600;}
	.st4{fill-rule:evenodd;clip-rule:evenodd;fill:#A90009;}
</style>
<path class="st0" d="M174.7,146.7c-0.1-14.6-0.4-29.3-0.7-43.9c-0.1-4.2-1.4-5.5-5.3-5.5c-10,0-20.1,0.1-30.1,0.4
	c-4.3,0.1-6.1,2.2-6.1,6.5c0,19.6,0.9,75.1,0.9,83.2c0,11.7,0.1,23.3,0.2,35c0,3.2,1.6,5.1,4.6,5.2c10.3,0.4,20.5,0.6,30.8,0.7
	c2.7,0,4.9-1.4,5-4.5c0.4-9,0.9-17.9,0.9-26.9C175,180.2,174.9,163.4,174.7,146.7"/>
<path class="st1" d="M170.4,111.2c-10.8,6.3-24.6,2.6-30.9-8.1c-6.3-10.8-2.6-24.6,8.1-30.9c10.8-6.3,24.6-2.6,30.9,8.1
	C184.8,91.2,181.1,105,170.4,111.2"/>
<path class="st2" d="M170.9,106.7c-8.6,5-19.5,2.1-24.5-6.5c-5-8.6-2.1-19.5,6.5-24.5c8.5-5,19.5-2.1,24.5,6.5
	C182.3,90.8,179.4,101.8,170.9,106.7"/>
<path class="st3" d="M166.6,100.1c-5.6-1-9.3-6.4-8.3-12.1c1-5.6,6.4-9.3,12.1-8.3c5.6,1,9.3,6.4,8.3,12.1
	C177.7,97.4,172.3,101.2,166.6,100.1"/>
<path class="st2" d="M164.9,90.8c-1.5-0.3-2.6-1.8-2.3-3.3c0.3-1.5,1.8-2.6,3.3-2.3c1.5,0.3,2.6,1.8,2.3,3.3
	C168,90.1,166.5,91.1,164.9,90.8"/>
<path class="st4" d="M144.3,181.1c-1.2-0.2-1.4-0.2-2.6,0c0,0,0,0-0.1,0c-2.2,0.4-3.6,2.7-3.7,4.8c0,1.2,0.3,2,0.8,3.1
	c1.6,3.8,8.3,2.8,8.9-1.2c0.1-0.7,0.3-1.3,0.2-2C147.8,183.8,146.6,181.5,144.3,181.1"/>
<path class="st4" d="M153.8,191.1c-2.9,0.8-2.6,4.6,0,5.5c0.3,0.1,0.6,0.1,1,0.2c0.8,0.1,1.6-0.5,2-1.1c-0.1,0.1-0.1,0.2-0.2,0.3
	C158.7,193.9,156.5,190.4,153.8,191.1"/>
<path class="st4" d="M151.1,203.4c0-0.1-0.1-0.2-0.1-0.2c-0.1-0.5-0.2-1-0.3-1.5c-0.3-1.1-1.1-2.4-1.9-3.2c-0.4-0.3-0.9-0.7-1.3-1
	c-0.6-0.3-1-0.4-1.3-0.5c-1.6-0.6-3.4-0.7-4.9,0.3c-2.1,1.4-3.2,3.1-3.4,5.7c-0.1,0.9,0.1,1.7,0.3,2.6c-0.4-2.2,0,0.6,0.2,1.3
	c1,3.4,4.6,5.5,8.1,4.6C149.7,210.6,152.3,206.8,151.1,203.4"/>
<path class="st4" d="M146.3,197C146.3,197,146.3,197,146.3,197C145.9,196.9,145.9,196.9,146.3,197"/>
<path class="st4" d="M146.3,197c0.2,0.1,0.4,0.2,0.8,0.3C146.8,197.2,146.5,197.1,146.3,197"/>
<path class="st4" d="M157.6,208.1c-7,0-7,10.8,0,10.8C164.5,218.9,164.5,208.1,157.6,208.1"/>
<path class="st4" d="M149.2,220.1c-0.2-0.4-0.5-0.8-0.8-1.1c-0.9-0.8-2.1-0.8-3,0c-0.4,0.3-0.6,0.7-0.8,1.1c-0.9,1.8,0.2,4,2.3,4
	C149.1,224.1,150.1,221.9,149.2,220.1"/>
<path class="st3" d="M140.5,115.6c0,0,3.7,22.9,14.8,25.1c11.1,2.2,13.3-24.4,13.3-24.4s10.3,46.5-5.9,51
	C146.4,171.7,130.9,132.6,140.5,115.6"/>
<path class="st2" d="M147.4,134.6c-0.9-1.3-1.7-2.7-2.4-4.2l-1.6,8.8L147.4,134.6z"/>
<path class="st2" d="M166.8,126.9c-0.5,2-1.1,4-1.9,5.9l3.8,4.4L166.8,126.9z"/>
<path class="st2" d="M146.4,158c1.2,1.8,2.5,3.4,3.9,4.8l0.1-11.4L146.4,158z"/>
<path class="st2" d="M167.2,164.3c1.4-1.7,2.5-4,3.2-6.6l-4.8-6.3L167.2,164.3z"/>
</svg>
