<?xml version="1.0" encoding="utf-8"?>
<!-- Generator: Adobe Illustrator 23.0.0, SVG Export Plug-In . SVG Version: 6.00 Build 0)  -->
<svg version="1.1" id="Layer_1" xmlns="http://www.w3.org/2000/svg" xmlns:xlink="http://www.w3.org/1999/xlink" x="0px" y="0px"
	 viewBox="0 0 300 300" style="enable-background:new 0 0 300 300;" xml:space="preserve">
<style type="text/css">
	.st0{fill-rule:evenodd;clip-rule:evenodd;fill:#FFA300;}
	.st1{fill:#FF6A00;}
	.st2{fill:#FFFFFF;}
	.st3{fill:#311600;}
	.st4{fill-rule:evenodd;clip-rule:evenodd;fill:#D84200;}
	.st5{fill-rule:evenodd;clip-rule:evenodd;fill:#321DFF;}
	.st6{fill:#E30009;}
	.st7{fill-rule:evenodd;clip-rule:evenodd;fill:#1F1D87;}
	.st8{fill-rule:evenodd;clip-rule:evenodd;fill:#A90009;}
</style>
<g>
	<path class="st0" d="M5,123.6c3.6-12,15.6-24.2,29.4-32.5C46.2,84,59,81,72.3,79.8c18.4-1.6,36.2,0.9,52.5,10.3
		c7.1,4,12.9,9.7,17.7,16.2c13.2,17.8,17.6,37.4,14,59.4c-1.8,10.6-4.3,20.6-10.3,29.7c-8.7,13.3-20.7,22.1-35.8,27.4
		c-15.4,5.3-31,6.9-46.8,3.5c-12.9-2.7-25.6-6.6-36.2-14.9c-15.1-11.8-25.2-33.2-26.3-48.8C0,146.9,1.5,135.6,5,123.6 M77.2,118.6
		c-6.6,0.1-15.7,2.5-22.6,10.2c-11.2,12.6-12.7,38.8,5.1,52.1c13.3,9.9,33.1,8.2,44-4.3c8.2-9.4,9.1-20.5,7.3-32.1
		C108.7,129.2,95.9,118.5,77.2,118.6"/>
	<path class="st1" d="M55.7,118c17.2-13.1,41.7-9.8,54.8,7.4s9.8,41.7-7.4,54.8c-17.2,13.1-41.7,9.8-54.8-7.4
		C35.1,155.6,38.5,131.1,55.7,118"/>
	<path class="st2" d="M55.8,125.9c13.6-10.4,33.2-7.7,43.5,5.9s7.7,33.2-5.9,43.5s-33.2,7.7-43.5-5.9
		C39.4,155.7,42.1,136.3,55.8,125.9"/>
	<path class="st3" d="M64.4,136.3c9.9,0.6,17.5,9.1,16.8,19c-0.6,9.9-9.1,17.5-19,16.8c-9.9-0.6-17.4-9.1-16.8-19
		C46,143.3,54.6,135.8,64.4,136.3"/>
	<path class="st2" d="M69.3,152c2.7,0.2,4.8,2.5,4.6,5.2c-0.2,2.7-2.5,4.8-5.2,4.6c-2.7-0.2-4.8-2.5-4.6-5.2
		C64.2,153.9,66.6,151.9,69.3,152"/>
	<path class="st3" d="M95.2,189.9c0,0,17.9,1.9,20.7-13.2s5.6-20.7,13.2-17.9c7.5,2.8,18.8,32-1.9,42.4
		C106.5,211.5,89.5,203.1,95.2,189.9"/>
	<path class="st2" d="M114.5,180.6c-2,4.3-5.5,6.7-8.9,7.9l14.5,2.5L114.5,180.6z"/>
	<path class="st2" d="M118.8,165c-0.9,2.4-1.7,5.5-2.4,9.3h11.6L118.8,165z"/>
	<path class="st2" d="M138.8,178.6c-0.3-2.8-0.8-5.6-1.8-8.2l-6.6,6.3L138.8,178.6z"/>
	<path class="st2" d="M108.6,205.8c3.5,0.1,7.3-0.5,11.6-1.8l-10.7-9.2L108.6,205.8z"/>
	<path class="st4" d="M128,100.5c-0.7-2.4-2.2-4-4.2-5.5c-1-0.8-2.4-1-3.5-1.5c-1.8-0.8-4.1-0.8-5.9-0.3c-2.5,0.8-4.4,2-5.8,4.2
		c-1.8,2.6-1.4,5.5-0.2,8.3c-0.2-0.6-0.5-1-0.7-1.6c0.4,1.5,1.1,2.7,2.3,3.9c0.8,0.8,1.7,1.5,2.6,2.2c1.9,1.3,4.4,1.9,6.7,2.1
		c4,0.3,7.8-3,8.8-6.8C128.5,103.7,128.5,102.1,128,100.5"/>
	<path class="st4" d="M125.7,118.7c-1.4-0.7-2.6-0.8-4.2-0.8c-2.4-0.1-4.3,2.1-4.3,4.3s2,4.4,4.3,4.3c2.5-0.1,5.3-0.8,5.9-3.7
		C127.7,121.2,127.2,119.4,125.7,118.7"/>
	<path class="st4" d="M145.1,118.7C145.1,118.7,145.1,118.6,145.1,118.7c-0.6-0.9-2.2-2.8-0.7-0.8c-0.1-0.1-0.1-0.1,0,0
		c-1.4-1.8-3.1-3.1-5.5-3.1c-2.4,0-4.6,1.2-5.7,3.3c-1.1,2-1.3,4-0.8,6.2c0.4,1.7,1.1,3.5,2.5,4.6c2,1.7,4.3,2.5,7,1.8
		c3.2-0.8,5-3.7,5.3-6.9C147.2,121.7,146.2,120.2,145.1,118.7"/>
	<path class="st4" d="M137.8,133.9c-2.8,0-5.2,2.4-5.2,5.2s2.4,5.2,5.2,5.2s5.2-2.4,5.2-5.2S140.6,133.9,137.8,133.9"/>
	<path class="st4" d="M96.5,98.1c-0.9-3.3-4.1-4.8-7.3-4.1c-0.9,0.2-1.8,0.6-2.5,1.1c-2.8,1.8-3.9,5.4-2.2,8.4
		c1.9,3.2,6.7,4,9.4,1.4C96.1,103.5,97.1,100.4,96.5,98.1"/>
</g>
<g>
	<path class="st5" d="M199.9,173.4c-0.1-9.8-0.3-19.7-0.5-29.5c-0.1-2.8-0.9-3.7-3.6-3.7c-6.7,0-13.5,0.1-20.2,0.3
		c-2.9,0.1-4.1,1.5-4.1,4.4c0,13.2,0.6,50.5,0.6,55.9c0,7.9,0.1,15.7,0.1,23.5c0,2.2,1.1,3.4,3.1,3.5c6.9,0.3,13.8,0.4,20.7,0.5
		c1.8,0,3.3-0.9,3.4-3c0.3-6.1,0.6-12,0.6-18.1C200.1,196,200,184.7,199.9,173.4"/>
	<path class="st6" d="M197,149.6c-7.3,4.2-16.5,1.7-20.8-5.4c-4.2-7.3-1.7-16.5,5.4-20.8c7.3-4.2,16.5-1.7,20.8,5.4
		C206.7,136.1,204.2,145.4,197,149.6"/>
	<path class="st2" d="M197.3,146.5c-5.8,3.4-13.1,1.4-16.5-4.4c-3.4-5.8-1.4-13.1,4.4-16.5c5.7-3.4,13.1-1.4,16.5,4.4
		C205,135.8,203,143.2,197.3,146.5"/>
	<path class="st3" d="M194.4,142.1c-3.8-0.7-6.3-4.3-5.6-8.1c0.7-3.8,4.3-6.3,8.1-5.6c3.8,0.7,6.3,4.3,5.6,8.1
		C201.9,140.3,198.3,142.8,194.4,142.1"/>
	<path class="st2" d="M193.3,135.8c-1-0.2-1.7-1.2-1.5-2.2c0.2-1,1.2-1.7,2.2-1.5c1,0.2,1.7,1.2,1.5,2.2
		C195.4,135.4,194.4,136,193.3,135.8"/>
	<path class="st7" d="M179.4,196.6c-0.8-0.1-0.9-0.1-1.7,0c0,0,0,0-0.1,0c-1.5,0.3-2.4,1.8-2.5,3.2c0,0.8,0.2,1.3,0.5,2.1
		c1.1,2.6,5.6,1.9,6-0.8c0.1-0.5,0.2-0.9,0.1-1.3C181.8,198.4,181,196.8,179.4,196.6"/>
	<path class="st7" d="M185.8,203.3c-1.9,0.5-1.7,3.1,0,3.7c0.2,0.1,0.4,0.1,0.7,0.1c0.5,0.1,1.1-0.3,1.3-0.7
		c-0.1,0.1-0.1,0.1-0.1,0.2C189.1,205.2,187.6,202.8,185.8,203.3"/>
	<path class="st7" d="M184,211.6c0-0.1-0.1-0.1-0.1-0.1c-0.1-0.3-0.1-0.7-0.2-1c-0.2-0.7-0.7-1.6-1.3-2.2c-0.3-0.2-0.6-0.5-0.9-0.7
		c-0.4-0.2-0.7-0.3-0.9-0.3c-1.1-0.4-2.3-0.5-3.3,0.2c-1.4,0.9-2.2,2.1-2.3,3.8c-0.1,0.6,0.1,1.1,0.2,1.7c-0.3-1.5,0,0.4,0.1,0.9
		c0.7,2.3,3.1,3.7,5.4,3.1C183.1,216.4,184.8,213.8,184,211.6"/>
	<path class="st8" d="M180.8,207.3L180.8,207.3C180.5,207.2,180.5,207.2,180.8,207.3"/>
	<path class="st8" d="M180.8,207.3c0.1,0.1,0.3,0.1,0.5,0.2C181.1,207.4,180.9,207.3,180.8,207.3"/>
	<path class="st7" d="M188.4,214.7c-4.7,0-4.7,7.3,0,7.3C193,222,193,214.7,188.4,214.7"/>
	<path class="st7" d="M182.7,222.8c-0.1-0.3-0.3-0.5-0.5-0.7c-0.6-0.5-1.4-0.5-2,0c-0.3,0.2-0.4,0.5-0.5,0.7
		c-0.6,1.2,0.1,2.7,1.5,2.7C182.7,225.5,183.3,224,182.7,222.8"/>
	<path class="st3" d="M176.9,152.5c0,0,2.5,15.4,10,16.9c7.5,1.5,8.9-16.4,8.9-16.4s6.9,31.3-4,34.3
		C180.8,190.2,170.4,164,176.9,152.5"/>
	<path class="st2" d="M181.5,165.3c-0.6-0.9-1.1-1.8-1.6-2.8l-1.1,5.9L181.5,165.3z"/>
	<path class="st2" d="M194.6,160.1c-0.3,1.3-0.7,2.7-1.3,4l2.6,3L194.6,160.1z"/>
	<path class="st2" d="M180.8,181c0.8,1.2,1.7,2.3,2.6,3.2l0.1-7.7L180.8,181z"/>
	<path class="st2" d="M194.8,185.3c0.9-1.1,1.7-2.7,2.2-4.4l-3.2-4.2L194.8,185.3z"/>
</g>
</svg>
