<?xml version="1.0" encoding="utf-8"?>
<!-- Generator: Adobe Illustrator 23.0.0, SVG Export Plug-In . SVG Version: 6.00 Build 0)  -->
<svg version="1.1" id="Layer_1" xmlns="http://www.w3.org/2000/svg" xmlns:xlink="http://www.w3.org/1999/xlink" x="0px" y="0px"
	 viewBox="0 0 300 300" style="enable-background:new 0 0 300 300;" xml:space="preserve">
<style type="text/css">
	.st0{fill-rule:evenodd;clip-rule:evenodd;fill:#00AEB5;}
	.st1{fill:#00AEB5;}
	.st2{fill:#FFFFFF;}
	.st3{fill:#311600;}
	.st4{fill:#39CCD6;}
	.st5{fill-rule:evenodd;clip-rule:evenodd;fill:#009597;}
</style>
<path class="st0" d="M84.9,97.4c0-11.6,2.1-13.9,13.6-13.9c7.7,0,15.4,0.3,23.2,0.7c5.6,0.2,8.1,2.5,8.3,8.2
	c0.3,7.7-0.5,52.6-0.2,67.3c0.1,6.1,1.4,12.3,3.1,18.1c2.8,9.5,11.2,12,20.1,11.1c14.3-1.4,19.9-11.4,20.3-26.9
	c0.2-8.7-0.5-53-0.8-66.5c-0.2-8.3,2.7-11.4,10.9-11.4c7.6,0.1,15.2,0,22.8,0.2c2.1,0,4.3,0.3,6.4,0.7c3.2,0.7,5.2,2.7,5.2,6.1
	c0,16.7,0.6,66.6,0.2,74.8c-0.5,11.1-2.7,21.9-7.6,32c-6.6,13.6-18,21.5-31.7,26.1c-19.5,6.5-39.5,5.7-58.5-1.5
	c-19.4-7.3-29.3-23.5-33.5-43.1c-1.6-7.5-1.4-15.3-1.7-23C84.7,148.1,84.9,108.8,84.9,97.4"/>
<path class="st1" d="M146.9,103.6c-3.5,15.8-19.2,25.7-35,22.2c-15.8-3.5-25.7-19.2-22.2-35c3.5-15.8,19.2-25.7,35-22.2
	C140.5,72.1,150.4,87.8,146.9,103.6"/>
<path class="st2" d="M145.1,104.2c-2.9,12.9-15.6,21-28.5,18.1c-12.9-2.9-21-15.6-18.1-28.5c2.9-12.9,15.6-20.9,28.5-18.1
	C139.9,78.6,148,91.4,145.1,104.2"/>
<path class="st3" d="M126.9,94.1c-6.7-1.5-13.3,2.7-14.8,9.4c-1.5,6.7,2.7,13.3,9.4,14.8c6.7,1.5,13.3-2.7,14.8-9.4
	C137.7,102.2,133.5,95.6,126.9,94.1"/>
<path class="st2" d="M122.6,102.8c-0.4,1.8-2.2,3-4,2.6c-1.8-0.4-3-2.2-2.6-4c0.4-1.8,2.2-3,4-2.6C121.9,99.2,123.1,101,122.6,102.8
	"/>
<path class="st4" d="M127.1,75.7c-8.9-2-17.8,1.3-23.3,7.7c10.2,1.1,28,4.9,41.8,18C146.8,89.6,139,78.4,127.1,75.7"/>
<path class="st1" d="M169.2,103.1c3.1,13.8,16.8,22.5,30.6,19.4c13.8-3.1,22.5-16.8,19.4-30.6c-3.1-13.8-16.8-22.5-30.6-19.4
	C174.8,75.6,166.1,89.3,169.2,103.1"/>
<path class="st2" d="M171.6,102.6c2.6,11.5,14,18.7,25.5,16.1c11.5-2.6,18.7-14,16.1-25.5c-2.6-11.5-14-18.7-25.5-16.1
	C176.3,79.7,169,91.1,171.6,102.6"/>
<path class="st3" d="M192.8,96c-5.9-1.3-11.9,2.4-13.2,8.4c-1.3,5.9,2.4,11.8,8.4,13.2c5.9,1.3,11.8-2.4,13.2-8.4
	C202.5,103.2,198.8,97.3,192.8,96"/>
<path class="st2" d="M189,103.8c-0.4,1.6-2,2.7-3.6,2.3c-1.6-0.4-2.7-2-2.3-3.6c0.4-1.6,2-2.7,3.6-2.3
	C188.4,100.6,189.4,102.2,189,103.8"/>
<path class="st4" d="M187.7,77.1c8-1.8,15.9,1.1,20.8,6.9c-9.1,1-25,4.4-37.4,16C170.1,89.5,177.1,79.5,187.7,77.1"/>
<path class="st3" d="M122,171.4c10.5,3.5,5.6,28.7,32.2,23.8c26.6-4.9,21-37.1,30.8-37.8c9.8-0.7,18.9,26.6,9.8,46.2
	c-9.1,19.6-47.6,26.6-68.5,5.6C105.2,188.1,111.5,167.9,122,171.4"/>
<path class="st2" d="M134.2,189.6c-1.9-2.4-3.2-5.2-4.4-7.9l-4.3,12.8L134.2,189.6z"/>
<path class="st2" d="M176.9,171.6c-1.1,3.3-2.3,6.8-4.2,10.1l10.1,5.7L176.9,171.6z"/>
<path class="st2" d="M130.2,212.6c3.9,3,8.2,5.2,12.7,6.7l-3.4-16.5L130.2,212.6z"/>
<path class="st2" d="M181.4,216.6c4.2-2.2,7.8-5,10.5-8.4l-15.2-6.8L181.4,216.6z"/>
<path class="st5" d="M210.7,137.3c-0.2-1.1-0.7-2.2-1.2-3.1c-1.5-3-5.1-5.2-8.4-4.8c-2.9,0.4-6.2,1.9-6.7,5.1
	c-0.2,0.9-0.3,1.7-0.3,2.6c-0.1,1.6,0.5,3,1.1,4.4c0.2,0.4,0.4,0.8,0.7,1.2c-0.7-1.8-0.6-1.6,0.3,0.7c0.4,0.7,0.9,1.3,1.5,1.8
	c1.6,1.4,3.3,2.3,5.5,2.3c2.5,0,5.6-1.4,6.7-3.8C210.8,141.5,211.3,139.7,210.7,137.3"/>
<path class="st5" d="M209.3,151.6c-0.2-0.1-0.3-0.1-0.5-0.2c-3.4-1.2-6.9,1.9-6.9,5.2c0,3.3,3.5,6.5,6.9,5.2
	c0.6-0.2,1.2-0.4,1.7-0.7c1.6-1,2.6-2.6,2.6-4.5C213.1,154.1,211.4,152.5,209.3,151.6"/>
<path class="st5" d="M99.1,137.9c-2.6-1.5-6.7-0.8-8.1,2.1c0,0,0,0,0,0.1c-0.1,0.1-0.3,0.3-0.4,0.4c-2.4,2.2-2.3,6.3,0,8.5
	c2.3,2.2,6.3,2.4,8.5,0c1.3-1.4,2.1-2.7,2.8-4.4C102.8,142.2,101.2,139.1,99.1,137.9"/>
<path class="st5" d="M102.2,161.7c-0.3-0.9-1-1.7-1.8-2.1c-2.5-1.7-6.1,0.4-6.1,3.4c0,4.2,5.3,5.2,7.5,2
	C102.3,164.1,102.5,162.7,102.2,161.7"/>
<path class="st5" d="M103.7,174.3c-1.8-3-6-4.3-9.1-2.4c-3.9,2.5-5.2,8.1-1.4,11.5c2.7,2.4,6.1,2.3,8.8,0c0.6-0.5,1-1.1,1.4-1.7
	C104.9,179.6,105,176.6,103.7,174.3"/>
<path class="st5" d="M108.5,145.7c-3.1-0.8-5.6,1-6.7,3.8c-0.2,0.5-0.4,1-0.5,1.6c-0.4,3,0.7,5.9,3.8,6.8c3.6,1,6.8-1.8,7-5.3
	c-0.1,1.8,0,0.4,0.1-0.1C113.1,149.5,111.3,146.5,108.5,145.7"/>
</svg>
